<?xml version="1.0" encoding="UTF-8"?>
<svg version="1.1" xmlns="http://www.w3.org/2000/svg" width="512" height="512">
<path d="M0 0 C0.83015625 -0.02449219 1.6603125 -0.04898438 2.515625 -0.07421875 C13.84193925 -0.12665539 22.84652211 4.95809233 32.3125 10.6875 C34.43053045 11.94608548 36.5490366 13.20387069 38.66796875 14.4609375 C40.29484619 15.43111816 40.29484619 15.43111816 41.95458984 16.42089844 C47.31652107 19.60039892 52.72090911 22.70538241 58.125 25.8125 C60.30997595 27.07147554 62.49487142 28.33059078 64.6796875 29.58984375 C66.30729004 30.52739502 66.30729004 30.52739502 67.96777344 31.48388672 C73.39659942 34.61180148 78.82319281 37.74358448 84.25 40.875 C86.41665583 42.12501879 88.5833225 43.37501878 90.75 44.625 C112.41666667 57.125 134.08333333 69.625 155.75 82.125 C156.8237085 82.74439453 157.89741699 83.36378906 159.00366211 84.00195312 C161.15830624 85.245123 163.31276757 86.48860975 165.46704102 87.73242188 C170.47754121 90.62483147 175.48962635 93.51435227 180.50863647 96.39196777 C182.26728749 97.40048314 184.02533209 98.4100477 185.78320312 99.41992188 C187.97472231 100.67850518 190.16734504 101.93516987 192.36132812 103.18945312 C209.01558903 112.76271164 222.38751961 120.78826962 227.83014035 140.34483492 C228.61442441 144.13711674 228.53134571 147.93305116 228.51742554 151.79179382 C228.52195665 152.72035795 228.52648776 153.64892207 228.53115618 154.6056245 C228.54378271 157.70677925 228.54218092 160.80775799 228.54052734 163.90893555 C228.54651374 166.13677699 228.55331955 168.36461636 228.56088257 170.592453 C228.57854001 176.63811706 228.58323789 182.68372449 228.58451414 188.72941184 C228.58593663 192.50940587 228.59020813 196.28938554 228.59550858 200.06937599 C228.61305476 212.58419495 228.62234893 225.09898176 228.62084763 237.61381044 C228.62076772 238.28773493 228.6206878 238.96165942 228.62060547 239.65600586 C228.62052371 240.33075979 228.62044195 241.00551372 228.62035771 241.70071474 C228.61954544 252.6271185 228.63867033 263.55338419 228.6668822 274.47974803 C228.69566589 285.7168778 228.70905385 296.95394245 228.70769465 308.19111663 C228.70718558 314.49264922 228.71283834 320.79402559 228.73405075 327.09552574 C228.75346872 333.02585918 228.75353301 338.95588796 228.73901749 344.88623238 C228.73693261 347.05654217 228.74161098 349.22687122 228.7537384 351.39714813 C228.84233976 368.35845063 227.22930423 381.7583981 215.2890625 394.69921875 C210.62547417 399.28093615 205.12126636 402.22634428 199.4375 405.375 C197.69616257 406.35937867 195.95483481 407.34377496 194.21411133 408.32923889 C192.41631647 409.3451924 190.61586198 410.35629866 188.81494141 411.36669922 C183.22410125 414.50899624 177.67663085 417.72662022 172.125 420.9375 C171.04742432 421.55890869 169.96984863 422.18031738 168.85961914 422.82055664 C161.68348851 426.95978199 154.52568033 431.12950036 147.375 435.3125 C138.10500223 440.73421178 128.79168248 446.07704915 119.46154785 451.39422607 C110.3371716 456.59545129 101.24867226 461.85527878 92.18310547 467.15844727 C81.67671741 473.3023965 71.1313613 479.37819756 60.58496094 485.453125 C56.01562194 488.08634876 51.44853252 490.72345995 46.8815918 493.36083984 C43.59814742 495.25585496 40.31281218 497.14755947 37.02734375 499.0390625 C33.59299566 501.0176122 30.16645548 503.00753915 26.75390625 505.0234375 C26.11356445 505.39863525 25.47322266 505.77383301 24.81347656 506.16040039 C23.23323126 507.08735131 21.65735787 508.02174559 20.08203125 508.95703125 C13.6166946 512.19415843 7.58871655 512.73919403 0.5 512.75 C-0.33015625 512.77449219 -1.1603125 512.79898438 -2.015625 512.82421875 C-13.34193925 512.87665539 -22.34652211 507.79190767 -31.8125 502.0625 C-33.93053045 500.80391452 -36.0490366 499.54612931 -38.16796875 498.2890625 C-39.25255371 497.64227539 -40.33713867 496.99548828 -41.45458984 496.32910156 C-46.81652107 493.14960108 -52.22090911 490.04461759 -57.625 486.9375 C-59.80997595 485.67852446 -61.99487142 484.41940922 -64.1796875 483.16015625 C-65.26475586 482.53512207 -66.34982422 481.91008789 -67.46777344 481.26611328 C-72.89659942 478.13819852 -78.32319281 475.00641552 -83.75 471.875 C-85.91665583 470.62498121 -88.0833225 469.37498122 -90.25 468.125 C-111.91666667 455.625 -133.58333333 443.125 -155.25 430.625 C-156.3237085 430.00560547 -157.39741699 429.38621094 -158.50366211 428.74804688 C-160.65830624 427.504877 -162.81276757 426.26139025 -164.96704102 425.01757812 C-169.97754121 422.12516853 -174.98962635 419.23564773 -180.00863647 416.35803223 C-181.76728749 415.34951686 -183.52533209 414.3399523 -185.28320312 413.33007812 C-187.47472231 412.07149482 -189.66734504 410.81483013 -191.86132812 409.56054688 C-208.51558903 399.98728836 -221.88751961 391.96173038 -227.33014035 372.40516508 C-228.11442441 368.61288326 -228.03134571 364.81694884 -228.01742554 360.95820618 C-228.02195665 360.02964205 -228.02648776 359.10107793 -228.03115618 358.1443755 C-228.04378271 355.04322075 -228.04218092 351.94224201 -228.04052734 348.84106445 C-228.04651374 346.61322301 -228.05331955 344.38538364 -228.06088257 342.157547 C-228.07854001 336.11188294 -228.08323789 330.06627551 -228.08451414 324.02058816 C-228.08593663 320.24059413 -228.09020813 316.46061446 -228.09550858 312.68062401 C-228.11305476 300.16580505 -228.12234893 287.65101824 -228.12084763 275.13618956 C-228.12076772 274.46226507 -228.1206878 273.78834058 -228.12060547 273.09399414 C-228.12052371 272.41924021 -228.12044195 271.74448628 -228.12035771 271.04928526 C-228.11954544 260.1228815 -228.13867033 249.19661581 -228.1668822 238.27025197 C-228.19566589 227.0331222 -228.20905385 215.79605755 -228.20769465 204.55888337 C-228.20718558 198.25735078 -228.21283834 191.95597441 -228.23405075 185.65447426 C-228.25346872 179.72414082 -228.25353301 173.79411204 -228.23901749 167.86376762 C-228.23693261 165.69345783 -228.24161098 163.52312878 -228.2537384 161.35285187 C-228.34233976 144.39154937 -226.72930423 130.9916019 -214.7890625 118.05078125 C-210.12548281 113.46907235 -204.62127628 110.52361549 -198.9375 107.375 C-197.19405382 106.3895739 -195.45061738 105.40413004 -193.70779419 104.41760254 C-191.90915686 103.40127078 -190.10786773 102.38976947 -188.30615234 101.37890625 C-182.75888081 98.26065211 -177.25715277 95.06337366 -171.75 91.875 C-169.58354229 90.62463789 -167.416875 89.37463881 -165.25 88.125 C-164.1775 87.50625 -163.105 86.8875 -162 86.25 C-126.25 65.625 -126.25 65.625 -122.99951172 63.74975586 C-120.83442929 62.50064482 -118.66939018 61.25145871 -116.50439453 60.00219727 C-111.06384294 56.86297691 -105.62252784 53.72509437 -100.1796875 50.58984375 C-89.72793808 44.56752675 -79.28699707 38.52831935 -68.875 32.4375 C-58.80171347 26.545832 -48.68034386 20.74144069 -38.53955078 14.96704102 C-36.88802002 14.02622681 -36.88802002 14.02622681 -35.203125 13.06640625 C-34.12998047 12.45684082 -33.05683594 11.84727539 -31.95117188 11.21923828 C-29.78888499 9.97351565 -27.63926319 8.70558571 -25.50195312 7.41748047 C-16.84358057 2.20981109 -10.06159636 0.0153378 0 0 Z M-33.75 108.375 C-34.51038574 108.55772461 -35.27077148 108.74044922 -36.05419922 108.92871094 C-65.22986371 116.12659616 -88.79528437 131.32603527 -109.75 152.375 C-110.30034912 152.90383789 -110.85069824 153.43267578 -111.41772461 153.97753906 C-135.4906446 177.34930604 -150.2812773 214.19850786 -150.953125 247.5234375 C-151.22843686 269.12551476 -151.22843686 269.12551476 -147.75 290.375 C-147.46793701 291.53153076 -147.46793701 291.53153076 -147.18017578 292.71142578 C-142.29472327 312.20271006 -133.73120747 330.25140649 -121.75 346.375 C-120.70972656 347.77878906 -120.70972656 347.77878906 -119.6484375 349.2109375 C-95.41548613 380.16013756 -59.47933169 401.73791839 -20.3046875 406.87109375 C-2.58879325 408.74165465 15.88406874 408.56393309 33.25 404.375 C33.97509766 404.20871094 34.70019531 404.04242188 35.44726562 403.87109375 C62.04797334 397.65274649 85.47918427 384.12110882 105.25 365.375 C105.9615625 364.71226074 105.9615625 364.71226074 106.6875 364.03613281 C116.71201514 354.657729 124.55824511 344.37453319 131.25 332.375 C122.5451961 326.9431235 113.74435998 321.73981421 104.8125 316.6875 C94.76263091 310.99003269 84.78022192 305.19782013 74.91430664 299.18481445 C73.65541626 298.42817505 73.65541626 298.42817505 72.37109375 297.65625 C71.6433374 297.21345703 70.91558105 296.77066406 70.16577148 296.31445312 C68.15669168 295.15485537 68.15669168 295.15485537 65.25 295.375 C63.37622083 297.56176685 63.37622083 297.56176685 61.5625 300.375 C50.15841363 316.50157422 33.34640804 326.83327844 13.98828125 330.8671875 C-7.42702436 333.77626768 -26.70660719 329.43085184 -44.66015625 317.4296875 C-60.4730258 305.35618277 -70.23169891 288.83884482 -74.359375 269.5234375 C-77.09111945 247.50557721 -72.44157372 226.7058668 -58.875 208.9375 C-46.18940436 194.26056085 -29.2586131 183.79542346 -9.75 181.375 C12.32285288 179.90433802 32.86071489 184.54847076 50.00390625 199.234375 C55.77301957 204.73259083 61.11377089 210.54123017 65.25 217.375 C69.05560234 216.79433397 71.776577 215.71078266 75.07421875 213.7421875 C76.00790283 213.19054932 76.94158691 212.63891113 77.90356445 212.07055664 C78.90476318 211.46977295 79.90596191 210.86898926 80.9375 210.25 C83.09065481 208.97443121 85.24431916 207.6997222 87.3984375 206.42578125 C89.07824707 205.42925537 89.07824707 205.42925537 90.79199219 204.41259766 C94.25443468 202.3659176 97.73728558 200.35597814 101.2265625 198.35546875 C102.36907471 197.7001416 103.51158691 197.04481445 104.6887207 196.36962891 C106.87659119 195.11665785 109.06518708 193.86495226 111.25463867 192.61474609 C118.0427979 188.71687251 124.68298942 184.63492354 131.25 180.375 C126.51339005 171.58177956 121.1642497 164.27693696 114.54736328 156.84423828 C113.39431023 155.53842848 112.27104423 154.20645131 111.15234375 152.87109375 C106.10806563 146.91532389 100.43790053 142.11211038 94.25 137.375 C93.23421875 136.58222656 92.2184375 135.78945312 91.171875 134.97265625 C56.67215368 108.73974117 8.61609168 97.66264248 -33.75 108.375 Z M118.25 231.375 C118.25 236.985 118.25 242.595 118.25 248.375 C112.64 248.375 107.03 248.375 101.25 248.375 C101.25 253.655 101.25 258.935 101.25 264.375 C106.86 264.375 112.47 264.375 118.25 264.375 C118.25 269.985 118.25 275.595 118.25 281.375 C123.53 281.375 128.81 281.375 134.25 281.375 C134.58 276.095 134.91 270.815 135.25 265.375 C143.17 264.88 143.17 264.88 151.25 264.375 C151.25 259.095 151.25 253.815 151.25 248.375 C145.97 248.045 140.69 247.715 135.25 247.375 C134.92 242.095 134.59 236.815 134.25 231.375 C128.97 231.375 123.69 231.375 118.25 231.375 Z M182.25 231.375 C181.92 236.655 181.59 241.935 181.25 247.375 C175.97 247.705 170.69 248.035 165.25 248.375 C165.25 253.655 165.25 258.935 165.25 264.375 C170.53 264.705 175.81 265.035 181.25 265.375 C181.745 273.295 181.745 273.295 182.25 281.375 C187.53 281.375 192.81 281.375 198.25 281.375 C198.25 275.765 198.25 270.155 198.25 264.375 C203.53 264.375 208.81 264.375 214.25 264.375 C214.25 259.095 214.25 253.815 214.25 248.375 C208.97 248.375 203.69 248.375 198.25 248.375 C198.25 242.765 198.25 237.155 198.25 231.375 C192.97 231.375 187.69 231.375 182.25 231.375 Z " fill="#00599C" transform="translate(255.75,-0.375)"/>
</svg>
